<svg xmlns="http://www.w3.org/2000/svg" width="1024" height="1024" viewBox="0 0 680 680">
<title>Gir Yatra app icon</title>
<desc>Stylized golden Asiatic lion face with layered amber mane on deep forest green background</desc>

<rect x="40" y="40" width="600" height="600" rx="116" fill="#1A5C2A"/>
<ellipse cx="95" cy="95" rx="16" ry="28" fill="#145226" transform="rotate(-45,95,95)"/>
<ellipse cx="585" cy="95" rx="16" ry="28" fill="#145226" transform="rotate(45,585,95)"/>
<ellipse cx="95" cy="585" rx="16" ry="28" fill="#145226" transform="rotate(45,95,585)"/>
<ellipse cx="585" cy="585" rx="16" ry="28" fill="#145226" transform="rotate(-45,585,585)"/>

<g transform="translate(340,340)" fill="#6D1200">
  <ellipse cx="0" cy="-195" rx="22" ry="70" transform="rotate(0)"/>
  <ellipse cx="0" cy="-195" rx="22" ry="70" transform="rotate(30)"/>
  <ellipse cx="0" cy="-195" rx="22" ry="70" transform="rotate(60)"/>
  <ellipse cx="0" cy="-195" rx="22" ry="70" transform="rotate(90)"/>
  <ellipse cx="0" cy="-195" rx="22" ry="70" transform="rotate(120)"/>
  <ellipse cx="0" cy="-195" rx="22" ry="70" transform="rotate(150)"/>
  <ellipse cx="0" cy="-195" rx="22" ry="70" transform="rotate(180)"/>
  <ellipse cx="0" cy="-195" rx="22" ry="70" transform="rotate(210)"/>
  <ellipse cx="0" cy="-195" rx="22" ry="70" transform="rotate(240)"/>
  <ellipse cx="0" cy="-195" rx="22" ry="70" transform="rotate(270)"/>
  <ellipse cx="0" cy="-195" rx="22" ry="70" transform="rotate(300)"/>
  <ellipse cx="0" cy="-195" rx="22" ry="70" transform="rotate(330)"/>
</g>

<g transform="translate(340,340)" fill="#C6390F">
  <ellipse cx="0" cy="-168" rx="27" ry="62" transform="rotate(15)"/>
  <ellipse cx="0" cy="-168" rx="27" ry="62" transform="rotate(45)"/>
  <ellipse cx="0" cy="-168" rx="27" ry="62" transform="rotate(75)"/>
  <ellipse cx="0" cy="-168" rx="27" ry="62" transform="rotate(105)"/>
  <ellipse cx="0" cy="-168" rx="27" ry="62" transform="rotate(135)"/>
  <ellipse cx="0" cy="-168" rx="27" ry="62" transform="rotate(165)"/>
  <ellipse cx="0" cy="-168" rx="27" ry="62" transform="rotate(195)"/>
  <ellipse cx="0" cy="-168" rx="27" ry="62" transform="rotate(225)"/>
  <ellipse cx="0" cy="-168" rx="27" ry="62" transform="rotate(255)"/>
  <ellipse cx="0" cy="-168" rx="27" ry="62" transform="rotate(285)"/>
  <ellipse cx="0" cy="-168" rx="27" ry="62" transform="rotate(315)"/>
  <ellipse cx="0" cy="-168" rx="27" ry="62" transform="rotate(345)"/>
</g>

<g transform="translate(340,340)" fill="#EF6C00">
  <ellipse cx="0" cy="-146" rx="31" ry="53" transform="rotate(0)"/>
  <ellipse cx="0" cy="-146" rx="31" ry="53" transform="rotate(30)"/>
  <ellipse cx="0" cy="-146" rx="31" ry="53" transform="rotate(60)"/>
  <ellipse cx="0" cy="-146" rx="31" ry="53" transform="rotate(90)"/>
  <ellipse cx="0" cy="-146" rx="31" ry="53" transform="rotate(120)"/>
  <ellipse cx="0" cy="-146" rx="31" ry="53" transform="rotate(150)"/>
  <ellipse cx="0" cy="-146" rx="31" ry="53" transform="rotate(180)"/>
  <ellipse cx="0" cy="-146" rx="31" ry="53" transform="rotate(210)"/>
  <ellipse cx="0" cy="-146" rx="31" ry="53" transform="rotate(240)"/>
  <ellipse cx="0" cy="-146" rx="31" ry="53" transform="rotate(270)"/>
  <ellipse cx="0" cy="-146" rx="31" ry="53" transform="rotate(300)"/>
  <ellipse cx="0" cy="-146" rx="31" ry="53" transform="rotate(330)"/>
</g>

<circle cx="340" cy="340" r="128" fill="#F9A825"/>
<ellipse cx="340" cy="308" rx="72" ry="52" fill="#FFB300" opacity="0.35"/>
<ellipse cx="340" cy="368" rx="82" ry="74" fill="#FFE082"/>

<path fill="none" stroke="#BF360C" stroke-width="3" stroke-linecap="round" opacity="0.5" d="M325,278 Q322,294 325,307"/>
<path fill="none" stroke="#BF360C" stroke-width="3" stroke-linecap="round" opacity="0.5" d="M340,275 L340,305"/>
<path fill="none" stroke="#BF360C" stroke-width="3" stroke-linecap="round" opacity="0.5" d="M355,278 Q358,294 355,307"/>

<ellipse cx="306" cy="318" rx="24" ry="17" fill="#3E2723" transform="rotate(-10,306,318)"/>
<ellipse cx="306" cy="318" rx="16" ry="11" fill="#558B2F" transform="rotate(-10,306,318)"/>
<ellipse cx="306" cy="318" rx="8" ry="10" fill="#111111" transform="rotate(-10,306,318)"/>
<circle cx="312" cy="312" r="4.5" fill="white"/>

<ellipse cx="374" cy="318" rx="24" ry="17" fill="#3E2723" transform="rotate(10,374,318)"/>
<ellipse cx="374" cy="318" rx="16" ry="11" fill="#558B2F" transform="rotate(10,374,318)"/>
<ellipse cx="374" cy="318" rx="8" ry="10" fill="#111111" transform="rotate(10,374,318)"/>
<circle cx="380" cy="312" r="4.5" fill="white"/>

<path fill="#5D1500" d="M324,359 Q340,349 356,359 Q360,371 340,381 Q320,371 324,359 Z"/>
<ellipse cx="340" cy="355" rx="9" ry="6" fill="#7B1A00" opacity="0.4"/>

<path fill="none" stroke="#5D1500" stroke-width="2.5" stroke-linecap="round" d="M340,381 L340,388"/>
<path fill="none" stroke="#5D1500" stroke-width="2.5" stroke-linecap="round" d="M340,388 Q332,396 320,391"/>
<path fill="none" stroke="#5D1500" stroke-width="2.5" stroke-linecap="round" d="M340,388 Q348,396 360,391"/>

<circle cx="270" cy="368" r="3.5" fill="#5D1500"/>
<circle cx="278" cy="379" r="3.5" fill="#5D1500"/>
<circle cx="267" cy="382" r="3.5" fill="#5D1500"/>
<circle cx="262" cy="372" r="3.5" fill="#5D1500"/>
<circle cx="410" cy="368" r="3.5" fill="#5D1500"/>
<circle cx="402" cy="379" r="3.5" fill="#5D1500"/>
<circle cx="413" cy="382" r="3.5" fill="#5D1500"/>
<circle cx="418" cy="372" r="3.5" fill="#5D1500"/>

<text x="340" y="608" text-anchor="middle" font-family="sans-serif" font-weight="700" font-size="22" fill="#FFD54F" letter-spacing="5">GIR YATRA</text>
</svg>
